<svg width="139" height="76" viewBox="0 0 139 76" fill="none" xmlns="http://www.w3.org/2000/svg">
<g clip-path="url(#clip0)">
<path d="M4.82678 65.8067C3.59026 65.8067 1.65987 65.5733 0.346521 65.2249V62.3892C1.54464 62.6998 3.12686 62.9718 5.21417 62.9718C7.87846 62.9718 9.03734 61.4179 9.03734 58.1952C9.03734 54.4285 7.99451 53.3413 5.90802 52.914C1.62146 52.0208 0 50.1564 0 45.5737C0 40.0198 3.16691 38.0781 7.60794 38.0781C8.88369 38.0781 10.5828 38.35 11.7033 38.6607V41.4956C10.3907 41.185 8.57395 40.9138 7.22301 40.9138C5.29099 40.9138 3.43743 42.079 3.43743 45.1464C3.43743 48.2919 3.97846 49.1851 6.41146 49.6897C10.1194 50.4662 12.4756 52.0981 12.4756 57.8057C12.4748 64.2537 9.42391 65.8067 4.82678 65.8067Z" fill="#39156E"/>
<path d="M15.399 72.1372V46.1177H18.1033L18.4114 47.7874C19.6087 46.545 21.1533 45.8457 22.9701 45.8457C27.488 45.8457 29.0718 48.7973 29.0718 54.583C29.0718 63.0877 26.987 65.8067 20.8452 65.8067C19.956 65.8067 19.2614 65.7286 18.6819 65.6514V72.1372H15.399ZM18.6819 51.942V62.8551C19.2614 62.9332 20.0729 63.0104 21.2326 63.0104C24.9005 63.0104 25.7129 60.3308 25.7129 54.9716C25.7129 50.0397 24.8237 48.6412 22.3523 48.6412C20.1898 48.642 18.6819 50.5451 18.6819 51.942Z" fill="#39156E"/>
<path d="M45.2464 65.5355C44.5116 65.5355 42.9278 65.2249 42.3483 63.6325C41.3831 65.031 39.8377 65.8075 37.2502 65.8075C34.4306 65.8075 31.495 64.8749 31.495 60.0597C31.495 55.8656 34.0833 53.5739 38.3707 53.5739H41.4207V51.4761C41.4207 49.845 40.4547 48.6412 38.5243 48.6412C36.3226 48.6412 34.854 48.9131 32.9236 49.4563V46.6214C34.3538 46.1941 36.245 45.8449 38.137 45.8449C43.1599 45.8449 44.7045 47.8252 44.7045 52.2526V61.5724C44.7045 62.3489 45.1679 62.8148 46.4036 62.8148V65.5339H45.2464V65.5355ZM41.4216 60.293V56.2149H38.1778C36.5171 56.2149 34.8556 57.2642 34.8556 59.8271C34.8556 62.2355 35.9761 63.0112 38.0234 63.0112C40.6877 63.0112 41.4216 61.0695 41.4216 60.293Z" fill="#39156E"/>
<path d="M59.4268 65.1863C58.1894 65.5355 56.6072 65.8075 55.2162 65.8075C50.7736 65.8075 48.4566 64.3317 48.4566 55.4384C48.4566 48.4875 50.5423 45.8465 55.177 45.8465C56.4519 45.8465 58.3063 46.1571 59.4268 46.4283V49.3018C57.9966 48.9912 56.9153 48.7578 54.9457 48.7578C52.7056 48.7578 51.818 50.467 51.818 56.2149C51.818 62.04 53.0153 62.8946 54.9457 62.8946C57.0314 62.8946 58.3063 62.5453 59.4268 62.3128V65.1863Z" fill="#39156E"/>
<path d="M65.0087 56.9914C65.124 62.1172 66.3605 63.0104 68.2917 63.0104C70.4158 63.0104 72.3077 62.6604 73.4674 62.3892V65.1855C72.2317 65.5347 70.0668 65.8067 68.6774 65.8067C64.2348 65.8067 61.7249 64.4862 61.7249 55.8262C61.7249 48.6412 64.1187 45.8457 68.7551 45.8457C73.1961 45.8457 74.9728 48.9518 74.9728 54.0784V56.9914H65.0087ZM65.0463 54.3512H71.7667V53.3027C71.7667 50.3511 70.9568 48.6034 68.6782 48.6034C66.206 48.6025 65.24 49.8844 65.0463 54.3512Z" fill="#39156E"/>
<path d="M89.7752 65.146C88.926 65.3794 86.7611 65.8067 85.4878 65.8067C79.9647 65.8067 77.687 63.0876 77.687 51.5155C77.687 40.0592 80.3112 38.0781 85.9496 38.0781C87.1877 38.0781 88.7307 38.35 89.7752 38.622V41.4964C88.4994 41.1858 86.7611 40.9919 85.2557 40.9919C82.4361 40.9919 81.122 42.3904 81.122 51.7883C81.122 61.5741 82.5146 62.8945 85.2933 62.8945C86.8772 62.8945 88.81 62.5453 89.7752 62.3128V65.146Z" fill="#39156E"/>
<path d="M102.546 65.5355L102.274 63.943C101.194 65.146 99.8022 65.8075 97.8334 65.8075C93.5436 65.8075 92.2703 63.5158 92.2703 58.7786V46.1177H95.5549V59.1656C95.5549 61.6127 95.9799 63.0104 98.3328 63.0104C100.458 63.0104 101.889 61.1846 101.964 59.8263V46.1177H105.248V65.5355H102.546Z" fill="#39156E"/>
<path d="M114.636 65.8067C111.855 65.8067 110.62 65.5347 109.189 65.3408V38.3509H112.472V47.5549C113.631 46.4669 115.061 45.8457 116.762 45.8457C121.278 45.8457 122.863 48.7973 122.863 54.583C122.862 63.0885 120.777 65.8067 114.636 65.8067ZM112.472 51.942V62.8551C113.052 62.9332 113.862 63.0104 115.023 63.0104C118.691 63.0104 119.502 60.3308 119.502 54.9716C119.502 50.0397 118.612 48.6412 116.141 48.6412C113.979 48.642 112.472 50.5451 112.472 51.942Z" fill="#39156E"/>
<path d="M129.037 56.9914C129.15 62.1172 130.388 63.0104 132.318 63.0104C134.444 63.0104 136.335 62.6604 137.495 62.3892V65.1855C136.259 65.5347 134.095 65.8067 132.705 65.8067C128.264 65.8067 125.753 64.4862 125.753 55.8262C125.753 48.6412 128.148 45.8457 132.785 45.8457C137.226 45.8457 139.001 48.9518 139.001 54.0784V56.9914H129.037ZM129.074 54.3512H135.795V53.3027C135.795 50.3511 134.984 48.6034 132.705 48.6034C130.234 48.6025 129.266 49.8844 129.074 54.3512Z" fill="#39156E"/>
<path d="M47.2192 19.7868L47.216 35.705L60.6102 27.9283L60.9265 27.3728L60.9289 11.8335L47.2192 19.7868Z" fill="#E06C58"/>
<path d="M45.9517 19.7868L45.9566 35.705L32.5607 27.9283L32.2436 27.3728L32.2428 11.8335L45.9517 19.7868Z" fill="#EB9F89"/>
<path d="M46.5826 18.6775L60.2955 10.7225L46.8997 2.94666L46.2647 2.94912L32.8778 10.7167L46.5826 18.6775Z" fill="#F6D0C1"/>
<path d="M62.8389 9.24589L47.2193 0.172565C46.8245 -0.0583355 46.3407 -0.0583355 45.9492 0.172565L30.3206 9.24425C29.9308 9.47351 29.6889 9.89422 29.6889 10.3527V28.4838C29.6889 28.9415 29.9308 29.3622 30.3206 29.5923L45.9419 38.6615C46.1396 38.7757 46.3603 38.8332 46.5793 38.8332C46.8 38.8332 47.019 38.7757 47.2152 38.6615L62.8364 29.5923C63.2303 29.363 63.4714 28.9398 63.4714 28.4838L63.4739 10.3544C63.4755 9.89751 63.232 9.47433 62.8389 9.24589ZM45.9435 35.7058L32.5534 27.9316L43.6478 21.491C43.8014 21.4031 43.8537 21.2067 43.7655 21.0539C43.678 20.9019 43.4819 20.8493 43.3282 20.9372L32.233 27.3778V11.8293L45.9476 19.7868L45.9435 35.7058ZM46.5826 18.6775L32.8689 10.7217L46.2696 2.94173V15.8261C46.2696 16.002 46.4093 16.1458 46.5859 16.1458C46.7616 16.1441 46.9038 16.002 46.9038 15.8245V2.94173L60.2947 10.7241L46.5826 18.6775ZM47.2193 19.7868L60.9281 11.8335L60.9265 27.3736L49.8337 20.9364C49.6833 20.8501 49.4888 20.9019 49.403 21.0547C49.3123 21.2075 49.367 21.4047 49.519 21.491L60.6094 27.9299L47.2152 35.7058L47.2193 19.7868Z" fill="#39156E"/>
<path d="M81.7284 75.9449L81.4333 74.5521H79.9051L79.5994 75.9449H78.9039L80.2254 70.4345H81.1252L82.4255 75.9449H81.7284ZM80.6651 70.9547L80.0309 73.9613H81.3075L80.6651 70.9547Z" fill="#E06C58"/>
<path d="M88.0164 73.5521L89.087 75.9449H88.3376L87.3332 73.6622H86.6361V75.9449H85.9569V70.4345C85.9569 70.4345 86.6287 70.3795 87.2801 70.3795C88.4676 70.3795 88.7977 71.0171 88.7977 71.9859C88.7986 72.7961 88.5722 73.3319 88.0164 73.5521ZM87.3716 70.9465C86.9433 70.9465 86.6369 70.9941 86.6369 70.9941V73.0878H87.3716C87.8113 73.0878 88.1022 72.8997 88.1022 72.0418C88.1022 71.2768 87.9273 70.9465 87.3716 70.9465Z" fill="#E06C58"/>
<path d="M94.8594 75.866C94.6878 75.9137 94.2481 76 93.9906 76C92.8726 76 92.4092 75.4486 92.4092 73.1034C92.4092 70.7813 92.9413 70.3795 94.0846 70.3795C94.3372 70.3795 94.6477 70.4345 94.8594 70.4896V71.0722C94.602 71.0097 94.2481 70.9695 93.9457 70.9695C93.372 70.9695 93.1072 71.253 93.1072 73.1577C93.1072 75.1413 93.39 75.4092 93.9539 75.4092C94.2751 75.4092 94.6649 75.3385 94.8594 75.2917V75.866Z" fill="#E06C58"/>
<path d="M100.767 75.9449V73.4099H99.155V75.9449H98.4734V70.4345H99.155V72.8282H100.767V70.4345H101.449V75.9449H100.767Z" fill="#E06C58"/>
<path d="M105.061 75.9449V75.3706H105.61V71.0097H105.061V70.4345H106.841V71.0097H106.29V75.3706H106.841V75.9449H105.061Z" fill="#E06C58"/>
<path d="M112.033 71.0336V75.9449H111.352V71.0336H110.146V70.4345H113.239V71.0336H112.033Z" fill="#E06C58"/>
<path d="M116.723 75.9449V70.4345H119.29V71.0097H117.403V72.8117H119.095V73.3869H117.403V75.3697H119.29V75.9441H116.723V75.9449Z" fill="#E06C58"/>
<path d="M125.244 75.866C125.072 75.9137 124.633 76 124.377 76C123.255 76 122.794 75.4486 122.794 73.1034C122.794 70.7813 123.326 70.3795 124.469 70.3795C124.722 70.3795 125.032 70.4345 125.244 70.4896V71.0722C124.986 71.0097 124.633 70.9695 124.329 70.9695C123.757 70.9695 123.492 71.253 123.492 73.1577C123.492 75.1413 123.774 75.4092 124.337 75.4092C124.659 75.4092 125.05 75.3385 125.244 75.2917V75.866Z" fill="#E06C58"/>
<path d="M130.443 71.0336V75.9449H129.762V71.0336H128.556V70.4345H131.648V71.0336H130.443Z" fill="#E06C58"/>
<path d="M135.943 76C135.693 76 135.301 75.9523 135.035 75.8817V75.3065C135.28 75.3697 135.6 75.4248 136.022 75.4248C136.563 75.4248 136.797 75.1101 136.797 74.4568C136.797 73.6934 136.584 73.4732 136.163 73.3869C135.295 73.2045 134.964 72.8274 134.964 71.898C134.964 70.7731 135.608 70.3787 136.507 70.3787C136.765 70.3787 137.11 70.4337 137.339 70.4962V71.0714C137.071 71.0089 136.703 70.953 136.43 70.953C136.038 70.953 135.664 71.1897 135.664 71.8109C135.664 72.4485 135.773 72.6301 136.264 72.732C137.015 72.889 137.495 73.2201 137.495 74.3771C137.494 75.6853 136.873 76 135.943 76Z" fill="#E06C58"/>
</g>
<defs>
<clipPath id="clip0">
<rect width="139" height="76" fill="white"/>
</clipPath>
</defs>
</svg>
